<svg width="19" height="15" viewBox="0 0 19 15" fill="none" xmlns="http://www.w3.org/2000/svg">
<path d="M16.5436 1.679C17.5792 2.773 18.1351 4 18.1351 5.989C18.1351 9.489 15.6649 12.626 12.0726 14.177L11.1747 12.799C14.5278 10.995 15.1833 8.654 15.4447 7.178C14.9048 7.456 14.198 7.553 13.5053 7.489C11.6915 7.322 10.2618 5.841 10.2618 4C10.2618 3.0717 10.6326 2.1815 11.2925 1.5251C11.9524 0.86875 12.8475 0.5 13.7807 0.5C14.8595 0.5 15.8911 0.99 16.5436 1.679ZM6.48947 1.679C7.52507 2.773 8.08107 4 8.08107 5.989C8.08107 9.489 5.61077 12.626 2.01847 14.177L1.12064 12.799C4.47367 10.995 5.12917 8.654 5.39057 7.178C4.85067 7.456 4.14387 7.553 3.45117 7.489C1.63742 7.322 0.20874 5.841 0.20874 4C0.20874 3.0717 0.57948 2.1815 1.23941 1.5251C1.89933 0.86875 2.79438 0.5 3.72767 0.5C4.80647 0.5 5.83797 0.99 6.49047 1.679H6.48947Z" fill="#CBC7B5"/>
</svg>
