<svg width="18" height="15" viewBox="0 0 18 15" fill="none" xmlns="http://www.w3.org/2000/svg">
<path d="M1.6294 13.3212C0.593832 12.2272 0.0378418 11.0002 0.0378418 9.0112C0.0378418 5.5112 2.50812 2.3742 6.1004 0.823242L6.9983 2.2012C3.6452 4.0052 2.98971 6.3462 2.72831 7.8222C3.2682 7.5442 3.975 7.4472 4.6677 7.5112C6.4815 7.6782 7.9112 9.1592 7.9112 11.0002C7.9112 11.9285 7.5404 12.8187 6.8805 13.4751C6.2206 14.1315 5.3255 14.5002 4.3923 14.5002C3.3135 14.5002 2.28191 14.0102 1.6294 13.3212ZM11.6835 13.3212C10.6479 12.2272 10.0919 11.0002 10.0919 9.0112C10.0919 5.5112 12.5622 2.3742 16.1545 0.823242L17.0523 2.2012C13.6993 4.0052 13.0438 6.3462 12.7824 7.8222C13.3223 7.5442 14.0291 7.4472 14.7218 7.5112C16.5355 7.6782 17.9652 9.1592 17.9652 11.0002C17.9652 11.9285 17.5945 12.8187 16.9346 13.4751C16.2746 14.1315 15.3796 14.5002 14.4463 14.5002C13.3675 14.5002 12.336 14.0102 11.6835 13.3212Z" fill="#CBC7B5"/>
</svg>
